<svg xmlns="http://www.w3.org/2000/svg" width="22" height="22" viewBox="0 0 22 22">
    <g fill="none" fill-rule="evenodd">
        <g>
            <g>
                <g>
                    <path d="M0 0H22V22H0z" transform="translate(-1246 -27) translate(1142 20) translate(104 7)"/>
                    <path fill="#0A0A0A" fill-rule="nonzero" d="M15.329 3.506c1.447.267 2.673 1.278 3.276 2.698.719 1.67.496 3.328-.59 4.892-.136.193-.286.374-.446.542l-6.32 6.748-.286.274-6.559-7.017C3.458 10.627 2.97 9.439 2.98 8.079c.003-2.09 1.327-3.92 3.232-4.457 1.622-.452 3.079-.048 4.294 1.19l.07.074.225.254.176.209.409-.467c1.017-1.126 2.495-1.642 3.944-1.376zm-2.79 2.159l-.28.304-.422.487-.866.988-1.283-1.488c-.042-.049-.08-.09-.114-.128l-.05-.053c-.866-.882-1.807-1.146-2.94-.83-1.306.368-2.227 1.655-2.23 3.142-.007.994.339 1.848 1.057 2.62l5.57 5.953 5.592-5.969c.115-.12.222-.25.314-.38.828-1.194.976-2.354.453-3.569-.424-.999-1.272-1.701-2.26-1.883-.916-.169-1.85.13-2.541.806z" transform="translate(-1246 -27) translate(1142 20) translate(104 7)"/>
                </g>
            </g>
        </g>
    </g>
</svg>
